<svg width="72" height="72" viewBox="0 0 72 72" fill="none" xmlns="http://www.w3.org/2000/svg">
<path d="M64.242 0H7.75769C6.59275 0 5.64832 0.944578 5.64832 2.10938V41.6483C5.64832 45.6892 7.28407 49.8257 10.5101 53.9429C12.974 57.0871 16.3829 60.2447 20.6418 63.3275C27.7963 68.5063 34.8414 71.6832 35.1377 71.8158C35.4119 71.9385 35.7056 72 35.9995 72C36.2935 72 36.5874 71.9387 36.8616 71.8158C37.158 71.6832 44.203 68.5063 51.3576 63.3275C55.6166 60.2446 59.0255 57.0871 61.4895 53.9429C64.7156 49.8258 66.3515 45.6893 66.3515 41.6483V2.10938C66.3513 0.944578 65.4068 0 64.242 0ZM38.2591 50.536H38.1092V55.2046C38.1092 56.3695 37.1649 57.314 35.9998 57.314C34.835 57.314 33.8905 56.3695 33.8905 55.2046V50.536H29.2217C28.0566 50.536 27.1123 49.5915 27.1123 48.4266C27.1123 47.2617 28.0566 46.3172 29.2217 46.3172H38.2591C40.8335 46.3172 42.928 44.2228 42.928 41.6483C42.928 39.0741 40.8334 36.9797 38.2591 36.9797H33.7404C28.8398 36.9797 24.853 32.9927 24.853 28.0922C24.853 23.1917 28.8399 19.2047 33.7404 19.2047H33.8903V14.5361C33.8903 13.3712 34.8349 12.4267 35.9997 12.4267C37.1648 12.4267 38.1091 13.3712 38.1091 14.5361V19.2047H42.778C43.9428 19.2047 44.8873 20.1492 44.8873 21.3141C44.8873 22.479 43.9428 23.4235 42.778 23.4235H33.7403C31.1658 23.4235 29.0717 25.518 29.0717 28.0922C29.0717 30.6665 31.166 32.761 33.7403 32.761H38.259C43.1597 32.761 47.1466 36.7478 47.1466 41.6483C47.1467 46.5491 43.1597 50.536 38.2591 50.536Z" fill="#633739"/>
</svg>
