<svg width="87" height="86" viewBox="0 0 87 86" fill="none" xmlns="http://www.w3.org/2000/svg">
<path d="M43.5677 2.69141C35.5641 2.69141 28.9419 8.51315 27.6565 16.1501H13.9797C10.9971 16.1501 8.87907 18.5646 8.59624 21.5335L3.21278 78.0599C2.93 81.0289 5.61365 83.4434 8.59624 83.4434H62.4099C65.3924 83.4434 68.0761 81.0289 67.7933 78.0599L62.4099 21.5335C62.2179 19.5185 61.1659 17.7799 59.5867 16.8572C58.6051 8.87403 51.8174 2.69141 43.5677 2.69141ZM43.5677 5.38314C50.1227 5.38314 55.5271 9.97995 56.7635 16.1501H30.3719C31.6084 9.97995 37.0128 5.38314 43.5677 5.38314ZM62.8331 16.1501C64.0853 17.5584 64.9065 19.3712 65.0884 21.2812L65.141 21.8358L70.2143 26.1783L74.7829 18.1715L75.2008 17.4434C74.3099 16.648 73.1811 16.1501 71.852 16.1501H62.8331ZM76.8543 19.9721L71.9597 28.5336L77.2407 69.4458L83.9437 78.0599L77.2354 21.5335C77.1706 20.987 77.03 20.4701 76.8543 19.9721ZM19.3395 22.8794H22.0312C23.7241 22.8794 23.7995 25.246 22.2994 25.5186C23.5239 31.6867 28.9446 36.3407 35.4899 36.3407C42.0343 36.3407 47.4626 31.6881 48.6883 25.5212C47.1796 25.2559 47.2526 22.8794 48.9486 22.8794H51.6403C53.4353 22.8794 53.4353 25.5711 51.6403 25.5711H51.4195C51.4009 25.7054 51.3816 25.8086 51.3564 25.9207C49.9309 33.3864 43.3542 39.035 35.4899 39.035C27.6257 39.035 21.049 33.3864 19.6234 25.9207C19.594 25.7796 19.5801 25.6988 19.5603 25.5711H19.3395C17.5445 25.5711 17.5445 22.8794 19.3395 22.8794ZM65.509 25.7026L70.1039 73.9303L74.5305 69.5037L69.3048 28.9516L65.509 25.7026ZM75.8265 72.014L70.4351 77.4054L70.4719 77.7997C70.6823 80.0079 69.8899 81.9731 68.5399 83.4434H78.5603C80.3342 83.4434 82.0093 82.5738 83.0158 81.2563L75.8265 72.014Z" fill="#633739"/>
</svg>
