<svg width="36" height="36" viewBox="0 0 36 36" fill="none" xmlns="http://www.w3.org/2000/svg">
<g clip-path="url(#clip0_109_548)">
<path d="M18.0096 0C8.0688 0 0.00958252 8.05922 0.00958252 18C0.00958252 27.9408 8.0688 36 18.0096 36C27.9504 36 36.0096 27.9408 36.0096 18C36.0096 8.05922 27.9504 0 18.0096 0ZM20.1738 31.6835V22.0043H23.4011L24.0157 18H20.1738V15.402C20.1738 14.3065 20.7103 13.2384 22.4308 13.2384H24.1781V9.82969C24.1781 9.82969 22.5926 9.55898 21.0773 9.55898C17.9133 9.55898 15.8454 11.4771 15.8454 14.9484V18H12.3283V22.0043H15.8454V31.6835C9.22333 30.6443 4.15802 24.9138 4.15802 18C4.15802 10.35 10.3596 4.14844 18.0096 4.14844C25.6596 4.14844 31.8611 10.35 31.8611 18C31.8611 24.9138 26.7958 30.6443 20.1738 31.6835Z" fill="#F8F8F8"/>
</g>
<defs>
<clipPath id="clip0_109_548">
<rect width="36" height="36" fill="white" transform="translate(0.00958252)"/>
</clipPath>
</defs>
</svg>
