<svg width="143" height="60" viewBox="0 0 143 60" fill="none" xmlns="http://www.w3.org/2000/svg">
<g clip-path="url(#clip0_413_1032)">
<path d="M70.4853 40.7279C65.489 40.7279 60.4487 44.5166 58.7627 49.362C58.6483 49.6909 58.547 50.0241 58.4678 50.3618C58.3841 50.6994 58.3225 51.0327 58.2785 51.3615C57.605 56.207 60.8009 59.9956 65.7972 59.9956C70.7935 59.9956 75.8382 56.207 77.5198 51.3615C77.6342 51.0327 77.7355 50.6994 77.8147 50.3618C77.8983 50.0241 77.96 49.6909 78.004 49.362C78.6775 44.5166 75.4816 40.7279 70.4853 40.7279ZM71.423 51.3659C70.6086 52.9007 68.9314 54.032 67.2454 54.032C65.5594 54.032 64.4325 52.9007 64.3665 51.3659C64.3533 51.0458 64.3665 50.7126 64.4545 50.3661C64.5382 50.0153 64.6834 49.6865 64.8551 49.3664C65.6695 47.8316 67.3467 46.7003 69.0327 46.7003C70.7186 46.7003 71.8456 47.8316 71.9116 49.3664C71.9248 49.6865 71.9116 50.0197 71.8235 50.3661C71.7399 50.7169 71.5946 51.0458 71.423 51.3659ZM122.663 40.7279C117.671 40.7279 112.626 44.5166 110.94 49.362C110.826 49.6909 110.724 50.0241 110.645 50.3618C110.561 50.6994 110.5 51.0327 110.456 51.3615C109.782 56.207 112.978 59.9956 117.974 59.9956C122.971 59.9956 128.015 56.207 129.697 51.3615C129.812 51.0327 129.913 50.6994 129.992 50.3618C130.076 50.0241 130.137 49.6909 130.181 49.362C130.855 44.5166 127.659 40.7279 122.663 40.7279ZM123.6 51.3659C122.786 52.9007 121.109 54.032 119.423 54.032C117.737 54.032 116.61 52.9007 116.544 51.3659C116.531 51.0458 116.544 50.7126 116.632 50.3661C116.715 50.0153 116.861 49.6865 117.032 49.3664C117.847 47.8316 119.524 46.7003 121.21 46.7003C122.896 46.7003 124.023 47.8316 124.089 49.3664C124.102 49.6865 124.089 50.0197 124.001 50.3661C123.917 50.7169 123.772 51.0458 123.6 51.3659ZM109.069 3.50362L108.625 5.33655L108.382 6.33633L108.14 7.33611L97.91 49.3576H79.6415C80.5308 43.6132 76.7802 39.0923 70.8815 39.0923C64.9828 39.0923 59.0356 43.6132 57.1252 49.3576H56.6101V49.3664H38.2404C36.867 49.3664 36.0218 48.257 36.3564 46.8888L47.7708 0H71.7091H106.406C108.343 0 109.54 1.56983 109.069 3.50362ZM142.34 25.7137L136.001 10.9757C135.019 8.69985 132.792 7.3405 130.04 7.3405H110.148L99.9173 49.362H109.302C111.213 43.6176 117.16 39.0967 123.059 39.0967C128.958 39.0967 132.704 43.6176 131.819 49.362H134.825C136.762 49.362 138.726 47.7921 139.192 45.8627L142.696 31.4668C143.198 29.4102 143.075 27.4194 142.34 25.7137ZM135.072 28.3359H119.669C118.683 28.3359 117.957 27.415 118.186 26.4591L121.43 13.0936H128.94C129.556 13.0936 130.111 13.462 130.349 14.0276L135.851 27.1739C136.084 27.7264 135.675 28.3359 135.072 28.3359ZM39.1297 28.0596L27.8517 26.6564L39.812 25.2532L39.1297 28.0596ZM37.9411 32.9358L21.4819 31.4536L38.663 29.9715L37.9411 32.9358ZM36.757 37.7987L14.1613 36.2508L37.5097 34.7029L36.757 37.7943V37.7987ZM35.5772 42.6442L7.07847 41.0524L36.352 39.4606L35.5772 42.6442ZM34.4459 47.4808L0 45.854L35.1942 44.2271L34.6088 46.6389C34.5383 46.9239 34.4855 47.2046 34.4459 47.4808Z" fill="#633739"/>
<path d="M50.4385 14.8086H60.6644L59.8192 18.2815H53.7136L52.9608 21.3729H58.8904L58.0452 24.8459H52.1156L50.4429 31.7128H46.3226L50.4385 14.8086ZM65.7311 25.8851H64.2036L62.7862 31.7128H58.6659L62.7818 14.8086H69.7018C70.7891 14.8086 71.6783 15.0498 72.3738 15.5321C73.0693 16.0145 73.5403 16.6722 73.7868 17.5098C74.0334 18.3473 74.029 19.2813 73.778 20.3118C73.4611 21.6141 72.9373 22.6665 72.2065 23.469C71.4758 24.2714 70.6878 24.8415 69.8426 25.1791L71.1236 31.7172H66.5455L65.7267 25.8895L65.7311 25.8851ZM69.442 18.8384C69.1867 18.4657 68.7773 18.2815 68.2183 18.2815H66.0569L65.0532 22.4122H67.2146C67.7737 22.4122 68.2755 22.228 68.7113 21.8553C69.1515 21.4826 69.4464 20.9871 69.5961 20.36C69.7502 19.7198 69.7018 19.2111 69.4464 18.8384H69.442ZM77.3569 14.8086H87.5828L86.7376 18.2815H80.632L79.8793 21.3729H85.8088L84.9636 24.8459H79.0341L78.2065 28.2399H84.3121L83.4669 31.7128H73.241L77.3569 14.8086ZM89.8499 14.8086H100.076L99.2306 18.2815H93.125L92.3722 21.3729H98.3018L97.4566 24.8459H91.527L90.6994 28.2399H96.8051L95.9599 31.7128H85.734L89.8499 14.8086Z" fill="#F8F8F8"/>
</g>
<defs>
<clipPath id="clip0_413_1032">
<rect width="143" height="60" fill="white"/>
</clipPath>
</defs>
</svg>
