<svg width="30" height="30" viewBox="0 0 30 30" fill="none" xmlns="http://www.w3.org/2000/svg">
<g clip-path="url(#clip0_540_477)">
<path d="M15.0204 30.0407C23.3159 30.0407 30.0407 23.3159 30.0407 15.0204C30.0407 6.72484 23.3159 0 15.0204 0C6.72484 0 0 6.72484 0 15.0204C0 23.3159 6.72484 30.0407 15.0204 30.0407Z" fill="#F26122"/>
<path d="M15.0204 29.4299C22.9787 29.4299 29.4301 22.9784 29.4301 15.0201C29.4301 7.06182 22.9787 0.610352 15.0204 0.610352C7.06207 0.610352 0.610596 7.06182 0.610596 15.0201C0.610596 22.9784 7.06207 29.4299 15.0204 29.4299Z" fill="url(#paint0_linear_540_477)"/>
<path d="M15.0204 28.6161C22.3942 28.6161 28.3718 22.5291 28.3718 15.0205C28.3718 7.51179 22.3942 1.4248 15.0204 1.4248C7.64658 1.4248 1.66895 7.51179 1.66895 15.0205C1.66895 22.5291 7.64658 28.6161 15.0204 28.6161Z" fill="url(#paint1_radial_540_477)"/>
<path d="M19.6609 15.8751C18.8468 15.8751 18.1548 15.061 18.0327 13.9619C18.0327 14.084 18.0327 14.2061 18.0327 14.369C18.0327 15.6308 18.7654 16.6485 19.7016 16.6485C20.6379 16.6485 21.3706 15.6308 21.3706 14.369C21.3706 14.2469 21.3706 14.084 21.3706 13.9619C21.2485 15.061 20.5565 15.8751 19.7423 15.8751H19.6609Z" fill="#FFDB66"/>
<path d="M19.6613 12.0488C20.4754 12.0488 21.1674 12.8629 21.2895 13.962C21.2895 13.8398 21.2895 13.7177 21.2895 13.5549C21.2895 12.293 20.5568 11.2754 19.6206 11.2754C18.6844 11.2754 17.9517 12.293 17.9517 13.5549C17.9517 13.677 17.9517 13.8398 17.9517 13.962C18.0738 12.8629 18.7658 12.0488 19.5799 12.0488H19.6613Z" fill="#F3A81D"/>
<path d="M19.6609 16.2416C20.5602 16.2416 21.2892 15.2211 21.2892 13.9621C21.2892 12.7032 20.5602 11.6826 19.6609 11.6826C18.7617 11.6826 18.0327 12.7032 18.0327 13.9621C18.0327 15.2211 18.7617 16.2416 19.6609 16.2416Z" fill="#A24523"/>
<path d="M19.6609 12.3332C20.475 12.3332 21.167 13.1881 21.2892 14.3278C21.2892 14.2057 21.2892 14.1243 21.2892 14.0022C21.2892 12.7403 20.5565 11.7227 19.6609 11.7227C18.7654 11.7227 18.0327 12.7403 18.0327 14.0022C18.0327 14.1243 18.0327 14.2057 18.0327 14.3278C18.1548 13.2288 18.8061 12.3332 19.6609 12.3332Z" fill="#6A2811"/>
<path d="M10.5018 15.8751C9.68765 15.8751 8.99565 15.061 8.87354 13.9619C8.87354 14.084 8.87354 14.2061 8.87354 14.369C8.87354 15.6308 9.60623 16.6485 10.5425 16.6485C11.4787 16.6485 12.2114 15.6308 12.2114 14.369C12.2114 14.2469 12.2114 14.084 12.2114 13.9619C12.0893 15.061 11.3973 15.8751 10.5832 15.8751H10.5018Z" fill="#FFDB66"/>
<path d="M10.5021 12.0488C11.3162 12.0488 12.0082 12.8629 12.1303 13.962C12.1303 13.8398 12.1303 13.7177 12.1303 13.5549C12.1303 12.293 11.3976 11.2754 10.4614 11.2754C9.52518 11.2754 8.79248 12.293 8.79248 13.5549C8.79248 13.677 8.79248 13.8398 8.79248 13.962C8.9146 12.8629 9.60659 12.0488 10.4207 12.0488H10.5021Z" fill="#F3A81D"/>
<path d="M10.5018 16.2416C11.401 16.2416 12.13 15.2211 12.13 13.9621C12.13 12.7032 11.401 11.6826 10.5018 11.6826C9.60251 11.6826 8.87354 12.7032 8.87354 13.9621C8.87354 15.2211 9.60251 16.2416 10.5018 16.2416Z" fill="#A24523"/>
<path d="M10.5018 12.3332C11.3159 12.3332 12.0079 13.1881 12.13 14.3278C12.13 14.2057 12.13 14.1243 12.13 14.0022C12.13 12.7403 11.3973 11.7227 10.5018 11.7227C9.60623 11.7227 8.87354 12.7403 8.87354 14.0022C8.87354 14.1243 8.87354 14.2057 8.87354 14.3278C8.99565 13.2288 9.64694 12.3332 10.5018 12.3332Z" fill="#6A2811"/>
<path d="M11.0719 17.7067C10.3799 18.0323 9.64725 18.1951 8.87384 18.2358C7.53056 18.3172 6.3501 17.9916 5.33246 17.1775C4.07059 16.2413 3.90776 14.1653 4.27411 12.822C4.35552 12.537 4.47764 12.2114 4.68117 11.9672L2.56448 10.9902C2.56448 10.9902 2.56448 11.0716 2.52377 11.1124C2.48307 11.2752 2.40166 11.3973 2.36095 11.5601C2.32025 11.6822 2.27954 11.8451 2.27954 12.0079C2.36095 12.4149 2.84942 12.4556 2.97154 12.822C3.05295 13.1069 2.97154 13.4733 3.01224 13.7989C3.01224 14.1653 3.09365 14.4909 3.13436 14.8573C3.25647 15.5086 3.50071 16.1598 3.86706 16.689C4.23341 17.2182 4.59976 17.7067 5.12893 18.1137C5.69881 18.5615 6.43151 18.8464 7.16421 18.9278C7.89691 19.0499 8.71102 19.0092 9.44372 18.9278C10.0543 18.8464 10.6242 18.765 11.1941 18.5208C11.479 18.3986 11.7639 18.2765 12.0082 18.1137C12.4966 17.7474 13.1072 17.0147 13.3515 16.4448C13.3922 16.3227 13.7585 15.305 13.7992 15.1015L12.7816 15.6307C12.4559 16.4855 11.8861 17.2182 11.0312 17.6659L11.0719 17.7067Z" fill="#F3A81D"/>
<path d="M27.4357 11.2344C27.4357 11.2344 27.4357 11.153 27.3543 11.1123L25.2783 12.0892C25.4818 12.3335 25.6446 12.6591 25.726 12.9441C26.0924 14.2873 25.9296 16.3633 24.7084 17.2996C23.6908 18.073 22.5103 18.3986 21.2077 18.3172C20.475 18.3172 19.7016 18.1544 19.0503 17.8287C18.1955 17.4217 17.5849 16.689 17.3 15.7934L16.3638 15.3864C16.3638 15.3864 16.6894 16.4854 16.7708 16.6076C17.0151 17.1774 17.5849 17.9101 18.1141 18.2765C18.3583 18.4393 18.6433 18.5614 18.8875 18.6835C19.4574 18.8871 20.0273 19.0092 20.5971 19.0906C21.3298 19.172 22.144 19.172 22.8767 19.0906C23.6094 18.9685 24.3014 18.7242 24.8712 18.2765C25.4004 17.8694 25.7668 17.381 26.1331 16.8518C26.4995 16.2819 26.703 15.6306 26.8658 15.02C26.9472 14.6537 26.9879 14.328 26.9879 13.9617C26.9879 13.636 26.9879 13.3104 27.0286 12.9848C27.1507 12.6184 27.6392 12.5777 27.7206 12.1706C27.7206 12.0078 27.7206 11.8857 27.6392 11.7229C27.5985 11.5601 27.5171 11.4379 27.4764 11.2751L27.4357 11.2344Z" fill="#F3A81D"/>
<path d="M27.4358 10.9089C27.4358 10.9089 27.3137 10.5832 27.273 10.4611C27.273 10.4204 27.273 10.3797 27.1916 10.339C27.1509 10.2576 27.0695 10.2576 26.9881 10.2169C26.8253 10.2169 26.6624 10.2169 26.5403 10.2169C26.3775 10.2169 26.2554 10.2169 26.0926 10.2169C25.9297 10.1762 25.7669 10.0541 25.6041 9.93195C25.4413 9.80984 25.2785 9.72843 25.1156 9.64701C24.79 9.48419 24.4236 9.36208 24.0166 9.28067C23.5281 9.15855 22.9989 9.15855 22.5105 9.11784C21.9406 9.11784 21.3707 9.11784 20.8008 9.15855C20.2717 9.15855 19.7018 9.28066 19.1726 9.40278C18.3585 9.5656 16.3639 10.339 15.8755 10.5425C15.6312 10.6239 15.3056 10.6647 14.9799 10.6647C14.695 10.6647 14.3287 10.6647 14.0844 10.5425C13.596 10.339 11.6014 9.5249 10.7873 9.40278C10.2581 9.32137 9.72892 9.19925 9.15905 9.15855C8.58917 9.15855 8.01929 9.07714 7.44941 9.11784C6.96095 9.11784 6.43177 9.11784 5.94331 9.28067C5.57696 9.36208 5.21061 9.48419 4.84426 9.64701C4.68143 9.72843 4.51861 9.80984 4.35579 9.93195C4.19297 10.0541 4.07085 10.1762 3.86732 10.2169C3.7045 10.2169 3.58238 10.2169 3.41956 10.2169C3.25674 10.2169 3.09392 10.2169 2.9718 10.2169C2.89039 10.2169 2.80898 10.2576 2.76827 10.339C2.76827 10.3797 2.72757 10.4204 2.68686 10.4611C2.64615 10.6239 2.56474 10.7868 2.52404 10.9089C2.48333 11.0717 2.44263 11.1938 2.44263 11.3566C2.52404 11.7637 3.0125 11.8451 3.13462 12.2115C3.21603 12.5371 3.13462 12.9035 3.17533 13.2291C3.17533 13.5955 3.25674 13.9618 3.29744 14.3282C3.41956 14.9794 3.66379 15.6714 4.03014 16.282C4.35579 16.8519 4.76284 17.3811 5.29202 17.7881C5.86189 18.2766 6.55389 18.5208 7.28659 18.6429C8.01929 18.7651 8.8334 18.7651 9.5661 18.6429C10.136 18.5615 10.7466 18.4394 11.2757 18.2359C11.5607 18.1138 11.8456 17.9917 12.0491 17.7881C12.5376 17.4218 13.1482 16.6484 13.3924 16.0378C13.6367 15.4679 14.1251 14.0025 14.2065 13.6362C14.2472 13.4326 14.3287 13.2698 14.4508 13.1477C14.5729 13.0256 14.695 12.9849 14.8578 12.9442C15.0206 12.9442 15.1428 13.0256 15.2649 13.1477C15.387 13.2698 15.4684 13.4326 15.5091 13.6362C15.6312 14.0025 16.079 15.4272 16.3232 16.0378C16.5675 16.6077 17.1373 17.3811 17.6665 17.7881C17.9107 17.9917 18.1957 18.1138 18.4399 18.2359C19.0098 18.4394 19.5797 18.6022 20.1495 18.6429C20.8822 18.7244 21.6964 18.7244 22.4291 18.6429C23.1618 18.5208 23.8538 18.2359 24.4236 17.7881C24.9528 17.3811 25.3192 16.8519 25.6855 16.282C26.0519 15.7121 26.2554 15.0202 26.4182 14.3282C26.4996 13.9618 26.5403 13.5955 26.5403 13.2291C26.5403 12.9035 26.5403 12.5371 26.581 12.2115C26.7031 11.8451 27.1916 11.7637 27.273 11.3566C27.273 11.1938 27.273 11.031 27.1916 10.9089H27.4358ZM12.9854 15.2237C12.7004 16.1599 12.0898 16.8926 11.235 17.3404C10.5837 17.666 9.81033 17.8288 9.07763 17.8695C7.77506 17.951 6.59459 17.6253 5.57696 16.7705C4.35579 15.7936 4.19297 13.6362 4.55932 12.1708C4.68143 11.7637 4.84426 11.3566 5.1699 11.031C5.98401 10.2983 7.368 10.2169 8.38564 10.2169C9.28116 10.2169 10.1767 10.339 10.9908 10.5018C11.927 10.7054 13.2703 11.031 13.3517 12.1708C13.3517 13.1477 13.311 14.206 12.9854 15.1423V15.2237ZM24.505 16.8112C23.4874 17.6253 22.3069 17.9917 21.0044 17.9102C20.2717 17.9102 19.4983 17.7067 18.847 17.3811C17.9922 16.9333 17.3816 16.1599 17.0966 15.2644C16.8117 14.3282 16.6896 13.2698 16.7303 12.2929C16.771 11.1531 18.155 10.8275 19.0912 10.6239C19.946 10.4611 20.8415 10.339 21.6964 10.339C22.714 10.339 24.1387 10.4204 24.9121 11.1531C25.2377 11.4381 25.4413 11.8451 25.5227 12.2929C25.889 13.7176 25.7262 15.875 24.505 16.8926V16.8112Z" fill="#13141A"/>
<path opacity="0.4" d="M2.80831 10.9089C2.80831 10.9089 2.80831 10.8275 2.88972 10.7868C2.93043 10.7054 3.01184 10.7054 3.09325 10.6647C3.25607 10.6647 3.41889 10.6647 3.54101 10.6647C3.70383 10.6647 3.82595 10.6647 3.98877 10.6647C4.15159 10.6239 4.31442 10.5018 4.47724 10.3797C4.64006 10.2576 4.80288 10.1762 4.96571 10.0948C5.29135 9.93195 5.6577 9.80984 6.06475 9.72843C6.55322 9.60631 7.08239 9.60631 7.57086 9.5656C8.14074 9.5656 8.71062 9.5656 9.28049 9.60631C9.80967 9.60631 10.3795 9.72843 10.9087 9.85054C11.7228 10.0134 13.7174 10.7868 14.2059 10.9903C14.4501 11.0717 14.7757 11.1124 15.1014 11.1124C15.3863 11.1124 15.7527 11.1124 15.9969 10.9903C16.4854 10.7868 18.4799 9.97266 19.2941 9.85054C19.8232 9.76913 20.3524 9.64701 20.9223 9.60631C21.4922 9.60631 22.062 9.5249 22.6319 9.5656C23.1204 9.5656 23.6496 9.5656 24.138 9.72843C24.5044 9.80984 24.8707 9.93195 25.2371 10.0948C25.3999 10.1762 25.5627 10.2576 25.7255 10.3797C25.8884 10.5018 26.0105 10.6239 26.214 10.6647C26.3768 10.6647 26.4989 10.6647 26.6618 10.6647C26.8246 10.6647 26.9874 10.6647 27.1095 10.6647C27.1909 10.6647 27.2724 10.7054 27.3131 10.7868C27.3131 10.8275 27.3538 10.8682 27.3945 10.9089C27.4352 11.0717 27.5166 11.2345 27.5573 11.3566C27.5573 11.3566 27.5573 11.4381 27.5573 11.4788C27.5573 11.4788 27.5573 11.3974 27.5573 11.3566C27.5573 11.1938 27.5573 11.031 27.4759 10.9089C27.4352 10.7461 27.3538 10.5832 27.3131 10.4611C27.3131 10.4204 27.3131 10.3797 27.2316 10.339C27.1909 10.2576 27.1095 10.2576 27.0281 10.2169C26.8653 10.2169 26.7025 10.2169 26.5804 10.2169C26.4175 10.2169 26.2954 10.2169 26.1326 10.2169C25.9698 10.1762 25.8069 10.0541 25.6441 9.93195C25.4813 9.80984 25.3185 9.72843 25.1557 9.64701C24.83 9.48419 24.4637 9.36208 24.0566 9.28066C23.5681 9.15855 23.039 9.15855 22.5505 9.11784C21.9806 9.11784 21.4107 9.11784 20.8409 9.15855C20.3117 9.15855 19.7418 9.28066 19.2126 9.40278C18.3985 9.5656 16.404 10.339 15.9155 10.5425C15.6713 10.6239 15.3456 10.6647 15.02 10.6647C14.735 10.6647 14.3687 10.6647 14.1245 10.5425C13.636 10.339 11.6414 9.5249 10.8273 9.40278C10.2981 9.32137 9.76896 9.19925 9.19908 9.15855C8.62921 9.15855 8.05933 9.07714 7.48945 9.11784C7.00098 9.11784 6.47181 9.11784 5.98334 9.28066C5.61699 9.36208 5.25064 9.48419 4.88429 9.64701C4.72147 9.72843 4.55865 9.80984 4.39583 9.93195C4.23301 10.0541 4.11089 10.1762 3.90736 10.2169C3.74454 10.2169 3.62242 10.2169 3.4596 10.2169C3.29678 10.2169 3.13395 10.2169 3.01184 10.2169C2.93043 10.2169 2.84902 10.2576 2.80831 10.339C2.80831 10.3797 2.7676 10.4204 2.7269 10.4611C2.68619 10.6239 2.60478 10.7868 2.56408 10.9089C2.52337 11.0717 2.48267 11.1938 2.48267 11.3566C2.48267 11.3974 2.48267 11.4381 2.48267 11.4788C2.48267 11.4788 2.48267 11.3974 2.48267 11.3566C2.52337 11.1938 2.60478 11.031 2.64549 10.9089H2.80831Z" fill="url(#paint2_linear_540_477)"/>
<path opacity="0.3" d="M11.2347 17.3816C10.5834 17.7072 9.81002 17.87 9.07732 17.9107C7.77474 17.9921 6.59428 17.6665 5.57664 16.8117C4.76253 16.1604 4.43689 15.0206 4.39618 13.9216C4.35547 15.1427 4.68112 16.5267 5.57664 17.2594C6.59428 18.0735 7.77474 18.3992 9.07732 18.3178C9.81002 18.3178 10.5834 18.1143 11.2347 17.7886C12.0895 17.3408 12.7001 16.6081 12.9851 15.7126C13.27 14.8578 13.3514 13.8809 13.3514 12.9854C13.3514 13.7588 13.2293 14.5322 12.9851 15.2649C12.7001 16.2011 12.0895 16.9338 11.2347 17.3816Z" fill="url(#paint3_linear_540_477)"/>
<path opacity="0.3" d="M24.5047 16.8117C23.4871 17.6258 22.3066 17.9921 21.0041 17.9107C20.2714 17.9107 19.498 17.7072 18.8467 17.3816C17.9919 16.9338 17.3813 16.1604 17.0963 15.2649C16.8521 14.5729 16.7707 13.7588 16.73 12.9854C16.73 13.8809 16.8114 14.8578 17.0963 15.7126C17.3813 16.6081 17.9919 17.3408 18.8467 17.7886C19.498 18.1143 20.2714 18.2771 21.0041 18.3178C22.3066 18.3992 23.4871 18.0735 24.5047 17.2594C25.441 16.5267 25.7666 15.1835 25.6852 13.9216C25.6445 15.0206 25.2781 16.1604 24.5047 16.8117Z" fill="url(#paint4_linear_540_477)"/>
<path d="M5.16998 11.6822C5.98409 10.9495 7.36808 10.9087 8.38572 10.9087C9.28124 10.9087 10.1768 11.0309 10.9909 11.1937C11.9271 11.3972 13.2704 11.7229 13.3518 12.8219C13.3518 12.8626 13.3518 12.9033 13.3518 12.9847C13.3518 12.7405 13.3518 12.537 13.3518 12.2927C13.3111 11.153 11.9271 10.8273 10.9909 10.6238C10.1361 10.461 9.24054 10.3389 8.38572 10.3389C7.36808 10.3389 5.94339 10.4203 5.16998 11.153C4.84434 11.4379 4.64081 11.845 4.5594 12.2927C4.43728 12.7812 4.35587 13.3918 4.39658 14.0024C4.39658 13.5953 4.47799 13.1883 4.5594 12.8626C4.68151 12.4556 4.84434 12.0485 5.16998 11.7636V11.6822Z" fill="#F3A81D"/>
<path d="M19.0506 11.194C19.9054 11.0312 20.801 10.9091 21.6558 10.9091C22.6734 10.9091 24.0981 10.9905 24.8715 11.6825C25.1972 11.9674 25.4007 12.3745 25.4821 12.7816C25.5635 13.1479 25.6449 13.5143 25.6449 13.9213C25.6449 13.3107 25.6449 12.7409 25.4821 12.2117C25.36 11.8046 25.1972 11.3976 24.8715 11.0719C24.0574 10.3392 22.6734 10.2578 21.6558 10.2578C20.7603 10.2578 19.8647 10.3799 19.0506 10.5428C18.1144 10.7463 16.7711 11.0719 16.6897 12.2117C16.6897 12.4559 16.6897 12.6594 16.6897 12.9037C16.6897 12.863 16.6897 12.8223 16.6897 12.7409C16.7304 11.6011 18.1144 11.3162 19.0506 11.1126V11.194Z" fill="#F3A81D"/>
<path d="M8.22293 20.2306C9.85115 21.5739 12.2935 22.4287 15.0208 22.4287C17.748 22.4287 20.1904 21.5739 21.8186 20.2306C21.9 20.1899 21.9407 20.1492 22.0221 20.1899C22.0628 19.9864 21.8186 19.8236 21.6558 19.9864C20.0682 21.2483 17.6666 22.0624 15.0208 22.0624C12.3749 22.0624 9.97326 21.2483 8.38575 19.9864C8.22293 19.8643 7.97869 19.9864 8.0194 20.1899C8.10081 20.1899 8.14151 20.1899 8.22293 20.2306Z" fill="#F3A81D"/>
<path d="M15.0204 22.429C12.2931 22.429 9.85075 21.5742 8.22252 20.2309C8.019 20.0681 7.73406 20.3123 7.89688 20.5159C9.32157 22.7954 12.0081 24.3015 15.0611 24.3015C18.114 24.3015 20.7598 22.7954 22.2252 20.5159C22.3474 20.3123 22.1031 20.0681 21.8996 20.2309C20.2714 21.5742 17.829 22.429 15.1018 22.429H15.0204Z" fill="#A24523"/>
<path d="M8.2221 20.638C9.85033 21.9813 12.2927 22.8361 15.0199 22.8361C17.7472 22.8361 20.1895 21.9813 21.8178 20.638C21.8992 20.5566 22.0213 20.5566 22.1027 20.638C22.1027 20.638 22.1434 20.5566 22.1841 20.5159C22.3062 20.3123 22.062 20.0681 21.8585 20.2309C20.2302 21.5742 17.7879 22.429 15.0606 22.429C12.3334 22.429 9.89103 21.5742 8.26281 20.2309C8.05928 20.0681 7.77434 20.3123 7.93716 20.5159C7.93716 20.5159 7.97787 20.5973 8.01858 20.638C8.09999 20.5973 8.1814 20.5973 8.30351 20.638H8.2221Z" fill="#6A2811"/>
<path d="M22.1032 20.6377C20.6378 22.8358 18.0326 24.3012 15.0204 24.3012C12.0082 24.3012 9.40304 22.8358 7.93764 20.6377C7.85623 20.7191 7.77482 20.8412 7.85623 20.9633C9.28093 23.2429 11.9675 24.749 15.0204 24.749C18.0733 24.749 20.7192 23.2429 22.1846 20.9633C22.266 20.8412 22.1846 20.7191 22.1032 20.6377Z" fill="#FFDB66"/>
<path d="M15.0205 22.8361C15.0205 22.8361 14.8984 22.8361 14.8577 22.8361V25.0749C14.8577 25.0749 14.7763 25.2377 14.6542 25.2377H14.4507C13.3516 25.2377 12.4561 24.4236 12.4561 23.4467V22.5511C12.4561 22.5511 12.2526 22.5104 12.1711 22.4697V23.4467C12.1711 24.6271 13.1481 25.5634 14.2878 25.5634H14.4914C14.7763 25.5634 15.0205 25.3191 15.0205 25.0342V22.7954V22.8361Z" fill="#989EA6"/>
<path d="M17.585 23.447C17.585 24.4239 16.6894 25.238 15.5904 25.238H15.3869C15.3869 25.238 15.1833 25.1566 15.1833 25.0752V22.8364C15.1833 22.8364 15.0612 22.8364 15.0205 22.8364V25.0752C15.0205 25.3601 15.2647 25.6044 15.5497 25.6044H15.7532C16.9337 25.6044 17.8699 24.6274 17.8699 23.4877V22.5107C17.8699 22.5107 17.6664 22.5514 17.585 22.5922V23.4877V23.447Z" fill="#989EA6"/>
<path d="M15.1838 25.0745C15.1838 25.0745 15.2652 25.2373 15.3874 25.2373H15.5909C16.6899 25.2373 17.5855 24.4232 17.5855 23.4463V22.5508C16.8121 22.7136 15.9979 22.795 15.1838 22.795V25.0338V25.0745Z" fill="#F7F8F4"/>
<path d="M12.4561 23.4466C12.4561 24.4235 13.3516 25.2377 14.4506 25.2377H14.6542C14.6542 25.2377 14.8577 25.1562 14.8577 25.0748V22.836C14.0436 22.836 13.2295 22.7546 12.4561 22.5918V23.4873V23.4466Z" fill="#F7F8F4"/>
<path d="M17.3815 22.1846C16.6895 22.3067 15.9568 22.3881 15.1834 22.3881C15.1426 22.3881 15.0612 22.3881 15.0205 22.3881C14.9798 22.3881 14.8984 22.3881 14.8577 22.3881C14.0843 22.3881 13.3516 22.3067 12.6596 22.1846C12.4968 22.1846 12.334 22.1032 12.1711 22.0625V22.4696C12.1711 22.4696 12.3747 22.5103 12.4561 22.551C13.2295 22.7138 14.0436 22.7952 14.8577 22.7952C14.8984 22.7952 14.9798 22.7952 15.0205 22.7952C15.0612 22.7952 15.1426 22.7952 15.1834 22.7952C15.9975 22.7952 16.8116 22.7138 17.585 22.551C17.6664 22.551 17.7885 22.5103 17.8699 22.4696V22.0625C17.8699 22.0625 17.5443 22.1439 17.3815 22.1846Z" fill="#6F6E7D"/>
<path d="M16.0784 24.3827C15.7528 24.3827 15.4679 24.3013 15.2236 24.1385V25.1154C15.2236 25.1154 15.305 25.2783 15.4272 25.2783H15.6307C16.7297 25.2783 17.6253 24.4642 17.6253 23.4872V22.8359C17.6253 23.6908 16.9333 24.3827 16.0784 24.3827Z" fill="#DADCD9"/>
<path d="M12.4561 23.1611V23.4868C12.4561 24.4637 13.3516 25.2778 14.4506 25.2778H14.6542C14.6542 25.2778 14.8577 25.1964 14.8577 25.115V24.0974C14.6135 24.2602 14.2878 24.3823 13.9622 24.3823C13.2295 24.3823 12.6189 23.8531 12.4561 23.1611Z" fill="#DADCD9"/>
</g>
<defs>
<linearGradient id="paint0_linear_540_477" x1="15.0204" y1="0.406824" x2="15.0204" y2="29.3485" gradientUnits="userSpaceOnUse">
<stop stop-color="#FFCD05"/>
<stop offset="1" stop-color="#F58020"/>
</linearGradient>
<radialGradient id="paint1_radial_540_477" cx="0" cy="0" r="1" gradientUnits="userSpaceOnUse" gradientTransform="translate(15.0611 1.58763) scale(26.9471 26.9471)">
<stop stop-color="#FBFADE"/>
<stop offset="0.28" stop-color="#FCF1A1"/>
<stop offset="0.51" stop-color="#FEDA00"/>
<stop offset="0.77" stop-color="#FCB415"/>
<stop offset="1" stop-color="#F7901E"/>
</radialGradient>
<linearGradient id="paint2_linear_540_477" x1="2.56408" y1="10.2576" x2="27.5166" y2="10.2576" gradientUnits="userSpaceOnUse">
<stop stop-color="#010101"/>
<stop offset="0.06" stop-color="#050505"/>
<stop offset="0.12" stop-color="#111111"/>
<stop offset="0.18" stop-color="#262626"/>
<stop offset="0.25" stop-color="#444444"/>
<stop offset="0.31" stop-color="#6A6A6A"/>
<stop offset="0.38" stop-color="#989898"/>
<stop offset="0.44" stop-color="#CECECE"/>
<stop offset="0.5" stop-color="white"/>
<stop offset="0.56" stop-color="#C7C7C7"/>
<stop offset="0.62" stop-color="#939393"/>
<stop offset="0.68" stop-color="#666666"/>
<stop offset="0.75" stop-color="#414141"/>
<stop offset="0.81" stop-color="#252525"/>
<stop offset="0.87" stop-color="#111111"/>
<stop offset="0.94" stop-color="#050505"/>
<stop offset="1" stop-color="#010101"/>
</linearGradient>
<linearGradient id="paint3_linear_540_477" x1="13.3921" y1="15.5905" x2="4.35547" y2="15.8347" gradientUnits="userSpaceOnUse">
<stop stop-color="white"/>
<stop offset="1" stop-color="#010101"/>
</linearGradient>
<linearGradient id="paint4_linear_540_477" x1="16.73" y1="15.6312" x2="25.7259" y2="15.6312" gradientUnits="userSpaceOnUse">
<stop stop-color="white"/>
<stop offset="1" stop-color="#010101"/>
</linearGradient>
<clipPath id="clip0_540_477">
<rect width="30" height="30" fill="white"/>
</clipPath>
</defs>
</svg>
