<svg width="64" height="64" viewBox="0 0 64 64" fill="none" xmlns="http://www.w3.org/2000/svg">
<path d="M0 16C0 7.16344 7.16344 0 16 0H48C56.8366 0 64 7.16344 64 16V48C64 56.8366 56.8366 64 48 64H16C7.16344 64 0 56.8366 0 48V16Z" fill="#F8F8F8"/>
<path d="M54.2009 0H9.79912C4.39587 0 0 4.39587 0 9.79912V54.201C0 59.6041 4.39587 64 9.79912 64H54.201C59.6041 64 64 59.6041 64 54.2009V9.79912C64 4.39587 59.6041 0 54.2009 0ZM52.9335 40.3602C52.9335 43.4144 50.4488 45.8991 47.3946 45.8991H46.2962V46.3553C46.2962 49.526 43.7166 52.1056 40.5459 52.1056H32.0016C31.1731 52.1056 30.5016 51.4341 30.5016 50.6056C30.5016 49.7773 31.1731 49.1056 32.0016 49.1056H40.5459C42.0625 49.1056 43.2962 47.8719 43.2962 46.3553V24.2099C43.2962 19.0733 39.1174 14.8945 33.9809 14.8945H30.0224C24.8859 14.8945 20.7071 19.0734 20.7071 24.2099V44.3991C20.7071 45.2276 20.0355 45.8991 19.2071 45.8991H16.6087C13.5546 45.8991 11.0699 43.4144 11.0699 40.3602V35.535C11.0699 32.4807 13.5546 29.996 16.6087 29.996H17.7071V24.2097C17.7071 17.419 23.2318 11.8944 30.0224 11.8944H33.9809C40.7716 11.8944 46.2962 17.419 46.2962 24.2097V29.996H47.3946C50.4488 29.996 52.9335 32.4807 52.9335 35.535V40.3602ZM16.6086 32.9961H17.707V42.8991H16.6086C15.2088 42.8991 14.0697 41.7602 14.0697 40.3602V35.535C14.0699 34.135 15.2088 32.9961 16.6086 32.9961ZM49.9335 35.535V40.3602C49.9335 41.7601 48.7946 42.8991 47.3946 42.8991H46.2962V32.9961H47.3946C48.7945 32.9961 49.9335 34.135 49.9335 35.535Z" fill="#491517"/>
</svg>
