<svg width="48" height="48" viewBox="0 0 48 48" fill="none" xmlns="http://www.w3.org/2000/svg">
<g clip-path="url(#clip0_26_1772)">
<path d="M40.8066 0H7.1934C3.22059 0 0 3.22059 0 7.1934V40.8066C0 44.7794 3.22059 48 7.1934 48H40.8066C44.7794 48 48 44.7794 48 40.8066V7.1934C48 3.22059 44.7794 0 40.8066 0Z" fill="#491517"/>
<path d="M22.116 21.4015C23.3201 20.85 24.6485 20.9743 25.8914 21.2772C27.6625 15.9016 34.7783 14.7131 38.3283 19.1487C41.5211 23.1339 39.8276 29.7757 34.7938 31.2206C29.1618 32.8364 24.4931 28.0745 25.5185 22.5046C24.4465 22.0308 23.5609 22.0463 22.4889 22.5124C23.6464 28.7425 17.1676 33.9162 11.5124 30.4748C6.15226 27.2122 7.18544 18.3952 13.3301 16.7095C17.09 15.6763 20.9585 17.6805 22.1082 21.4015H22.116ZM14.6507 17.6572C7.45733 18.403 7.62823 29.6281 14.4954 30.3039C23.6619 31.1973 23.4133 16.7561 14.6507 17.6572ZM31.8419 17.6495C24.8815 18.4884 24.9048 29.6592 31.9351 30.2962C41.0861 31.1274 40.7443 16.5775 31.8419 17.6495Z" fill="white"/>
</g>
<defs>
<clipPath id="clip0_26_1772">
<rect width="48" height="48" fill="white"/>
</clipPath>
</defs>
</svg>
