<svg width="19" height="19" viewBox="0 0 19 19" fill="none" xmlns="http://www.w3.org/2000/svg">
<g clip-path="url(#clip0_51_535)">
<path d="M9.50301 4.57764C6.95076 4.57764 4.88451 6.64614 4.88451 9.19614C4.88451 11.7484 6.95301 13.8146 9.50301 13.8146C12.0553 13.8146 14.1215 11.7461 14.1215 9.19614C14.1215 6.64389 12.053 4.57764 9.50301 4.57764ZM9.50301 12.1939C7.84626 12.1939 6.50526 10.8521 6.50526 9.19614C6.50526 7.54014 7.84701 6.19839 9.50301 6.19839C11.159 6.19839 12.5008 7.54014 12.5008 9.19614C12.5015 10.8521 11.1598 12.1939 9.50301 12.1939Z" fill="#F8F8F8"/>
<path d="M13.2109 0.256491C11.5549 0.179241 7.45319 0.182991 5.79569 0.256491C4.33919 0.324741 3.05444 0.676491 2.01869 1.71224C0.287692 3.44324 0.508942 5.77574 0.508942 9.19649C0.508942 12.6975 0.313942 14.976 2.01869 16.6807C3.75644 18.4177 6.12269 18.1905 9.50294 18.1905C12.9709 18.1905 14.1679 18.1927 15.3942 17.718C17.0614 17.0707 18.3199 15.5805 18.4429 12.9037C18.5209 11.247 18.5164 7.14599 18.4429 5.48849C18.2944 2.32874 16.5987 0.412491 13.2109 0.256491ZM15.8322 15.5355C14.6974 16.6702 13.1232 16.569 9.48119 16.569C5.73119 16.569 4.22744 16.6245 3.13019 15.5242C1.86644 14.2665 2.09519 12.2467 2.09519 9.18449C2.09519 5.04074 1.66994 2.05649 5.82869 1.84349C6.78419 1.80974 7.06544 1.79849 9.47069 1.79849L9.50444 1.82099C13.5012 1.82099 16.6369 1.40249 16.8252 5.56049C16.8679 6.50924 16.8777 6.79424 16.8777 9.19574C16.8769 12.9022 16.9474 14.415 15.8322 15.5355Z" fill="#F8F8F8"/>
<path d="M14.3045 5.47466C14.9006 5.47466 15.3838 4.99147 15.3838 4.39541C15.3838 3.79936 14.9006 3.31616 14.3045 3.31616C13.7084 3.31616 13.2253 3.79936 13.2253 4.39541C13.2253 4.99147 13.7084 5.47466 14.3045 5.47466Z" fill="#F8F8F8"/>
</g>
<defs>
<clipPath id="clip0_51_535">
<rect width="18" height="18" fill="white" transform="translate(0.5 0.199219)"/>
</clipPath>
</defs>
</svg>
