<svg width="36" height="36" viewBox="0 0 36 36" fill="none" xmlns="http://www.w3.org/2000/svg">
<g clip-path="url(#clip0_109_541)">
<path d="M17.9964 8.75684C12.8919 8.75684 8.75941 12.8938 8.75941 17.9938C8.75941 23.0983 12.8964 27.2308 17.9964 27.2308C23.1009 27.2308 27.2334 23.0938 27.2334 17.9938C27.2334 12.8893 23.0964 8.75684 17.9964 8.75684ZM17.9964 23.9893C14.6829 23.9893 12.0009 21.3058 12.0009 17.9938C12.0009 14.6818 14.6844 11.9983 17.9964 11.9983C21.3084 11.9983 23.9919 14.6818 23.9919 17.9938C23.9934 21.3058 21.3099 23.9893 17.9964 23.9893Z" fill="#F8F8F8"/>
<path d="M25.4123 0.114057C22.1003 -0.0404435 13.8968 -0.0329434 10.5818 0.114057C7.66883 0.250557 5.09933 0.954056 3.02783 3.02556C-0.434169 6.48756 0.00833113 11.1526 0.00833113 17.9941C0.00833113 24.9961 -0.381669 29.5531 3.02783 32.9626C6.50333 36.4366 11.2358 35.9821 17.9963 35.9821C24.9323 35.9821 27.3263 35.9866 29.7788 35.0371C33.1133 33.7426 35.6303 30.7621 35.8763 25.4086C36.0323 22.0951 36.0233 13.8931 35.8763 10.5781C35.5793 4.25856 32.1878 0.426057 25.4123 0.114057ZM30.6548 30.6721C28.3853 32.9416 25.2368 32.7391 17.9528 32.7391C10.4528 32.7391 7.44533 32.8501 5.25083 30.6496C2.72333 28.1341 3.18083 24.0946 3.18083 17.9701C3.18083 9.68256 2.33033 3.71406 10.6478 3.28806C12.5588 3.22056 13.1213 3.19806 17.9318 3.19806L17.9993 3.24306C25.9928 3.24306 32.2643 2.40606 32.6408 10.7221C32.7263 12.6196 32.7458 13.1896 32.7458 17.9926C32.7443 25.4056 32.8853 28.4311 30.6548 30.6721Z" fill="#F8F8F8"/>
<path d="M27.5994 10.5514C28.7915 10.5514 29.7579 9.58498 29.7579 8.39287C29.7579 7.20077 28.7915 6.23438 27.5994 6.23438C26.4073 6.23438 25.4409 7.20077 25.4409 8.39287C25.4409 9.58498 26.4073 10.5514 27.5994 10.5514Z" fill="#F8F8F8"/>
</g>
<defs>
<clipPath id="clip0_109_541">
<rect width="36" height="36" fill="white" transform="translate(-0.00958252)"/>
</clipPath>
</defs>
</svg>
