<svg id="Layer_1" data-name="Layer 1" xmlns="http://www.w3.org/2000/svg" viewBox="0 0 18 18"><defs><style>.cls-1{fill:#f8f8f8;}</style></defs><path class="cls-1" d="M9,4.38A4.62,4.62,0,1,0,13.62,9,4.62,4.62,0,0,0,9,4.38ZM9,12a3,3,0,1,1,3-3A3,3,0,0,1,9,12Z"/><path class="cls-1" d="M12.71.06C11.06,0,7,0,5.3.06A5.35,5.35,0,0,0,1.52,1.51C-.21,3.24,0,5.58,0,9s-.2,5.78,1.51,7.48S5.62,18,9,18s4.67,0,5.89-.47c1.67-.65,2.93-2.14,3.05-4.82.08-1.65.08-5.75,0-7.41C17.79,2.13,16.1.21,12.71.06Zm2.62,15.28c-1.13,1.13-2.71,1-6.35,1s-5.25.05-6.35-1.05c-1.26-1.25-1-3.27-1-6.34,0-4.14-.43-7.12,3.73-7.34,1,0,1.24,0,3.64,0l0,0c4,0,7.14-.42,7.33,3.74,0,.95.05,1.23.05,3.64C16.38,12.7,16.45,14.22,15.33,15.34Z"/><path class="cls-1" d="M13.8,5.27A1.08,1.08,0,1,0,12.73,4.2,1.07,1.07,0,0,0,13.8,5.27Z"/></svg>