<svg width="40" height="32" viewBox="0 0 40 32" fill="none" xmlns="http://www.w3.org/2000/svg">
<g clip-path="url(#clip0_221_640)">
<path d="M25.1329 29.0444V28.9268H17.7419V29.0444L17.7432 29.1025C17.7432 29.7537 17.4848 30.3783 17.0248 30.8388C16.5648 31.2993 15.9409 31.558 15.2903 31.558C14.6398 31.558 14.0159 31.2993 13.5558 30.8388C13.0958 30.3783 12.8374 29.7537 12.8374 29.1025L12.8387 29.0418V28.9268H11.9961C11.6369 28.9269 11.2885 28.8039 11.0087 28.5783C10.7289 28.3528 10.5346 28.0382 10.458 27.6868L10.4568 27.6765L5.5316 4.33222L1.32385 3.63085C0.92311 3.54981 0.569525 3.31601 0.337803 2.97883C0.10608 2.64165 0.014368 2.2275 0.0820424 1.82388C0.149717 1.42027 0.371477 1.05879 0.700473 0.815819C1.02947 0.57285 1.43993 0.467421 1.84514 0.521804L1.8374 0.520512L7.10321 1.39885C7.7445 1.50864 8.24773 1.9943 8.38192 2.61689L8.38321 2.62722L9.27611 6.84322L24.6374 8.12455C24.5425 8.62969 24.4941 9.14248 24.4929 9.65647V9.66164C24.4929 10.1817 24.5372 10.6894 24.6258 11.1845L24.618 11.1328C24.1953 11.2662 23.8365 11.5508 23.6101 11.9323C23.3838 12.3138 23.3057 12.7654 23.391 13.2008L23.3897 13.1892L24.3174 19.8929C24.3742 20.3231 24.5703 20.7002 24.8568 20.9844C25.1174 21.244 25.4748 21.4068 25.871 21.4106H25.8722C25.9608 21.4106 26.0464 21.4025 26.129 21.3861L26.12 21.3874C26.5598 21.272 26.9394 20.9938 27.182 20.6089C27.4247 20.224 27.5123 19.7613 27.4271 19.3143L27.4284 19.3259L26.9226 15.6808C27.7255 16.5168 28.689 17.1816 29.7551 17.6353C30.8212 18.089 31.968 18.3222 33.1264 18.321C33.1824 18.3227 33.2374 18.3201 33.2916 18.3132L33.4116 18.3068L32.5484 23.3468C32.527 23.4687 32.4636 23.5792 32.3694 23.6592C32.2751 23.7391 32.1558 23.7836 32.0322 23.7847H12.8516L13.2735 25.7829H31.5406C31.9471 25.7991 32.3316 25.972 32.6136 26.2655C32.8957 26.559 33.0533 26.9503 33.0537 27.3575C33.054 27.7648 32.897 28.1563 32.6154 28.4503C32.3339 28.7442 31.9497 28.9178 31.5432 28.9346H30.0387V29.0521C30.0387 29.7034 29.7803 30.3279 29.3203 30.7884C28.8602 31.2489 28.2363 31.5076 27.5858 31.5076C26.9352 31.5076 26.3113 31.2489 25.8513 30.7884C25.3913 30.3279 25.1329 29.7034 25.1329 29.0521V29.0444ZM26.8851 29.0444C26.8854 29.1408 26.9057 29.2361 26.9447 29.3242C26.9836 29.4124 27.0405 29.4915 27.1116 29.5565C27.1827 29.6215 27.2665 29.671 27.3577 29.7019C27.4489 29.7328 27.5456 29.7444 27.6415 29.736C27.7374 29.7276 27.8306 29.6993 27.915 29.6529C27.9994 29.6066 28.0733 29.5432 28.132 29.4668C28.1907 29.3903 28.2329 29.3025 28.2559 29.2089C28.279 29.1153 28.2823 29.0179 28.2658 28.923V28.9268H26.8981C26.8928 28.9658 26.8894 29.0051 26.8877 29.0444H26.8851ZM14.591 29.0444C14.5912 29.1408 14.6115 29.2361 14.6505 29.3242C14.6894 29.4124 14.7463 29.4915 14.8174 29.5565C14.8885 29.6215 14.9723 29.671 15.0635 29.7019C15.1547 29.7328 15.2514 29.7444 15.3473 29.736C15.4432 29.7276 15.5364 29.6993 15.6208 29.6529C15.7052 29.6066 15.7792 29.5432 15.8378 29.4668C15.8965 29.3903 15.9387 29.3025 15.9617 29.2089C15.9848 29.1153 15.9881 29.0179 15.9716 28.923V28.9268H14.6026L14.5935 29.0418V29.0444H14.591ZM19.5806 11.1225C19.1409 11.2379 18.7613 11.5161 18.5186 11.901C18.276 12.2859 18.1884 12.7486 18.2735 13.1956L18.2722 13.184L19.2 19.8878C19.2568 20.3179 19.4529 20.6951 19.7393 20.9792C20 21.2388 20.3574 21.4016 20.7535 21.4055C20.8413 21.4055 20.9282 21.3973 21.0116 21.3809L21.0026 21.3822C21.4423 21.2668 21.8219 20.9886 22.0646 20.6037C22.3072 20.2189 22.3948 19.7561 22.3097 19.3091L22.311 19.3207L21.3832 12.617C21.3299 12.2032 21.1401 11.819 20.8439 11.5255C20.5746 11.2559 20.2105 11.1024 19.8297 11.098H19.8284C19.7389 11.098 19.6525 11.1066 19.569 11.1238L19.5781 11.1225H19.5806ZM14.4632 11.1225C14.0216 11.2368 13.6403 11.5156 13.3971 11.9018C13.154 12.2881 13.0673 12.7527 13.1548 13.2008L13.1535 13.1892L14.0813 19.8929C14.138 20.3231 14.3342 20.7002 14.6206 20.9844C14.8813 21.244 15.2387 21.4068 15.6348 21.4106H15.6361C15.7239 21.4106 15.8094 21.4025 15.8929 21.3861L15.8839 21.3874C16.3239 21.2723 16.7038 20.9941 16.9467 20.6093C17.1896 20.2244 17.2774 19.7615 17.1922 19.3143L17.1935 19.3259L16.2645 12.6183C16.2112 12.2045 16.0214 11.8203 15.7251 11.5268C15.4558 11.2572 15.0918 11.1037 14.711 11.0993H14.7097C14.6219 11.0993 14.5368 11.1074 14.4542 11.1238L14.4632 11.1225ZM25.8039 9.66551C25.8042 7.71971 26.5767 5.85373 27.9514 4.47808C28.6321 3.79693 29.4401 3.25666 30.3294 2.88811C31.2186 2.51957 32.1717 2.32997 33.1342 2.33014C34.0966 2.33031 35.0496 2.52024 35.9388 2.8891C36.8279 3.25796 37.6358 3.79852 38.3162 4.47991C38.9967 5.1613 39.5364 5.97019 39.9045 6.86038C40.2727 7.75057 40.4621 8.70463 40.4619 9.6681C40.4614 11.6142 39.6886 13.4805 38.3135 14.8562C36.9385 16.232 35.0738 17.0046 33.1297 17.0041C31.1855 17.0036 29.3212 16.23 27.9469 14.8535C26.5726 13.477 25.8008 11.6104 25.8013 9.66422L25.8039 9.66551ZM27.9032 9.66551C27.9032 10.353 28.0385 11.0338 28.3013 11.6689C28.5641 12.3041 28.9493 12.8812 29.4349 13.3673C29.9206 13.8534 30.4971 14.239 31.1316 14.5021C31.7661 14.7652 32.4461 14.9006 33.1329 14.9006C33.8197 14.9006 34.4997 14.7652 35.1342 14.5021C35.7687 14.239 36.3452 13.8534 36.8308 13.3673C37.3164 12.8812 37.7017 12.3041 37.9645 11.6689C38.2273 11.0338 38.3626 10.353 38.3626 9.66551C38.3627 8.27673 37.8118 6.94476 36.8309 5.96262C35.85 4.98048 34.5196 4.42862 33.1322 4.42845C31.7449 4.42828 30.4143 4.97981 29.4332 5.9617C28.4521 6.9436 27.9008 8.27544 27.9006 9.66422L27.9032 9.66551ZM32.0839 11.7593V10.7156H31.0413C30.7627 10.7156 30.4956 10.6049 30.2986 10.4077C30.1016 10.2105 29.991 9.94307 29.991 9.66422C29.991 9.38537 30.1016 9.11794 30.2986 8.92076C30.4956 8.72358 30.7627 8.6128 31.0413 8.6128H32.0839V7.56914C32.0839 7.29028 32.1945 7.02285 32.3915 6.82567C32.5885 6.62849 32.8556 6.51772 33.1342 6.51772C33.4127 6.51772 33.6799 6.62849 33.8769 6.82567C34.0738 7.02285 34.1845 7.29028 34.1845 7.56914V8.6128H35.2271C35.5056 8.6128 35.7728 8.72358 35.9698 8.92076C36.1667 9.11794 36.2774 9.38537 36.2774 9.66422C36.2774 9.94307 36.1667 10.2105 35.9698 10.4077C35.7728 10.6049 35.5056 10.7156 35.2271 10.7156H34.1845V11.758C34.1845 12.0369 34.0738 12.3043 33.8769 12.5015C33.6799 12.6987 33.4127 12.8094 33.1342 12.8094C32.8556 12.8094 32.5885 12.6987 32.3915 12.5015C32.1945 12.3043 32.0839 12.0369 32.0839 11.758V11.7593Z" fill="#491517"/>
</g>
<defs>
<clipPath id="clip0_221_640">
<rect width="40" height="31" fill="white" transform="translate(0 0.5)"/>
</clipPath>
</defs>
</svg>
