<svg width="40" height="40" viewBox="0 0 40 40" fill="none" xmlns="http://www.w3.org/2000/svg">
<mask id="mask0_221_642" style="mask-type:luminance" maskUnits="userSpaceOnUse" x="2" y="2" width="34" height="34">
<path d="M17.4997 31.6663C25.3238 31.6663 31.6663 25.3238 31.6663 17.4997C31.6663 9.67551 25.3238 3.33301 17.4997 3.33301C9.67551 3.33301 3.33301 9.67551 3.33301 17.4997C3.33301 25.3238 9.67551 31.6663 17.4997 31.6663Z" fill="white" stroke="white" stroke-width="2" stroke-linejoin="round"/>
<path d="M22.2135 11.9525C21.595 11.3327 20.8601 10.8412 20.0511 10.5061C19.2421 10.1711 18.3749 9.99906 17.4993 10C16.6237 9.99906 15.7565 10.1711 14.9475 10.5061C14.1385 10.8412 13.4037 11.3327 12.7852 11.9525" stroke="black" stroke-width="2" stroke-linecap="round" stroke-linejoin="round"/>
<path d="M27.6847 27.6846L34.7555 34.7554" stroke="white" stroke-width="2" stroke-linecap="round" stroke-linejoin="round"/>
</mask>
<g mask="url(#mask0_221_642)">
<path d="M0 0H40V40H0V0Z" fill="#491517"/>
</g>
</svg>
