<svg width="252" height="42" viewBox="0 0 252 42" fill="none" xmlns="http://www.w3.org/2000/svg">
<g clip-path="url(#clip0_109_530)">
<path d="M160.658 27.4443C158.139 24.3862 158.4 22.7787 161.836 21.0732C161.421 23.3374 161.083 25.1507 160.658 27.4443Z" fill="#F8F8F8"/>
<path d="M180.261 26.9642C179.923 25.0921 179.624 23.4062 179.286 21.5537C182.461 22.6319 182.818 24.6608 180.261 26.9642Z" fill="#F8F8F8"/>
<path d="M165.455 13.7809C168.737 12.242 172.366 12.5851 175.763 13.4378C180.589 -1.47049 200.017 -4.76384 209.717 7.52741C218.442 18.5837 213.809 36.9911 200.075 40.9902C184.71 45.4597 171.96 32.2569 174.759 16.839C171.845 15.5255 169.412 15.5647 166.488 16.8586C169.644 34.129 151.962 48.4884 136.51 38.9318C121.879 29.8849 124.697 5.42986 141.481 0.764279C151.74 -2.088 162.309 3.44993 165.446 13.7809H165.455ZM145.071 3.40092C125.44 5.45926 125.894 36.5991 144.647 38.4614C169.663 40.951 168.988 0.891701 145.071 3.40092ZM192.006 3.40092C173.003 5.73371 173.08 36.6873 192.257 38.4614C217.235 40.7647 216.309 0.421222 192.006 3.40092Z" fill="#F8F8F8"/>
<path d="M5.32761 0.94043L19.4767 35.7656L34.4558 0.94043H39.6193V41.1663H35.6236C35.4595 41.0389 35.9517 40.7351 35.9517 40.6567V6.68419L21.4359 41.1859L17.9421 40.9605L3.65791 7.01744V41.1663H0V0.94043H5.32761Z" fill="#F8F8F8"/>
<path d="M248.332 34.7463V0.94043H252V41.1663L248.072 41.0977L226.028 7.69376V41.1663H222.37V0.94043L226.192 1.27369L248.332 34.7463Z" fill="#F8F8F8"/>
<path d="M107.353 0.941182C110.944 1.35285 115.48 3.85227 117.246 7.12601C119.949 12.1444 118.897 19.9564 113.627 22.8576C112.131 23.681 110.635 23.7202 109.197 24.4357L119.176 41.1671L115.248 41.0985L105.529 24.6023H96.2059V41.1671H92.548V0.93138C97.2579 1.32345 102.75 0.402092 107.363 0.93138L107.353 0.941182ZM96.2059 20.8875H108.357C109.863 20.8875 112.584 19.2506 113.521 18.0156C116.976 13.4481 114.775 6.97899 109.515 5.17549C108.685 4.89124 106.108 4.32275 105.365 4.32275H96.2059V20.8875Z" fill="#F8F8F8"/>
<path d="M84.2188 41.1671L80.281 41.1083C79.4316 39.5597 76.3239 29.7286 75.3491 29.3856L57.5903 29.4934L52.8804 41.1083L48.9426 41.1671L64.6359 0.990234L68.4096 1.27448L84.2188 41.1671ZM74.2391 25.955L66.4118 5.66561L58.5845 25.955H74.2295H74.2391Z" fill="#F8F8F8"/>
</g>
<defs>
<clipPath id="clip0_109_530">
<rect width="252" height="42" fill="white"/>
</clipPath>
</defs>
</svg>
