<svg width="326" height="48" viewBox="0 0 326 48" fill="none" xmlns="http://www.w3.org/2000/svg">
<g clip-path="url(#clip0_221_623)">
<path d="M160.658 30.4443C158.139 27.3862 158.4 25.7787 161.836 24.0732C161.421 26.3374 161.083 28.1507 160.658 30.4443Z" fill="#491517"/>
<path d="M180.261 29.9642C179.923 28.0921 179.624 26.4062 179.286 24.5537C182.461 25.6319 182.819 27.6608 180.261 29.9642Z" fill="#491517"/>
<path d="M165.455 16.7809C168.736 15.242 172.365 15.5851 175.763 16.4378C180.588 1.52951 200.017 -1.76384 209.716 10.5274C218.441 21.5837 213.809 39.9911 200.075 43.9902C184.709 48.4597 171.96 35.2569 174.759 19.839C171.844 18.5255 169.412 18.5647 166.487 19.8586C169.643 37.129 151.962 51.4884 136.51 41.9318C121.878 32.8849 124.697 8.42986 141.48 3.76428C151.74 0.912004 162.308 6.44993 165.445 16.7809H165.455ZM145.071 6.40092C125.44 8.45926 125.893 39.5991 144.646 41.4614C169.663 43.951 168.987 3.8917 145.071 6.40092ZM192.006 6.40092C173.002 8.73371 173.079 39.6873 192.257 41.4614C217.235 43.7647 216.308 3.42122 192.006 6.40092Z" fill="#491517"/>
<path d="M5.32761 3.94092L19.4767 38.7661L34.4558 3.94092H39.6193V44.1668H35.6236C35.4595 44.0394 35.9517 43.7356 35.9517 43.6571V9.68468L21.4359 44.1864L17.9421 43.961L3.65791 10.0179V44.1668H0V3.94092H5.32761Z" fill="#491517"/>
<path d="M248.333 37.7468V3.94092H252V44.1668L248.072 44.0982L226.028 10.6942V44.1668H222.37V3.94092L226.192 4.27417L248.333 37.7468Z" fill="#491517"/>
<path d="M107.353 3.94069C110.944 4.35236 115.48 6.85178 117.246 10.1255C119.948 15.144 118.896 22.9559 113.627 25.8571C112.131 26.6805 110.635 26.7197 109.197 27.4352L119.176 44.1666L115.248 44.098L105.529 27.6018H96.2058V44.1666H92.5479V3.93089C97.2578 4.32296 102.749 3.4016 107.363 3.93089L107.353 3.94069ZM96.2058 23.887H108.357C109.863 23.887 112.584 22.2501 113.521 21.0151C116.976 16.4476 114.775 9.9785 109.515 8.175C108.685 7.89075 106.108 7.32226 105.365 7.32226H96.2058V23.887Z" fill="#491517"/>
<path d="M84.2185 44.1666L80.2807 44.1078C79.4314 42.5592 76.3236 32.7281 75.3488 32.3851L57.5901 32.4929L52.8802 44.1078L48.9424 44.1666L64.6357 3.98975L68.4094 4.27399L84.2185 44.1666ZM74.2389 28.9545L66.4116 8.66513L58.5842 28.9545H74.2292H74.2389Z" fill="#491517"/>
</g>
<g clip-path="url(#clip1_221_623)">
<path d="M318.807 0H285.193C281.221 0 278 3.22059 278 7.1934V40.8066C278 44.7794 281.221 48 285.193 48H318.807C322.779 48 326 44.7794 326 40.8066V7.1934C326 3.22059 322.779 0 318.807 0Z" fill="#491517"/>
<path d="M300.116 21.4017C301.32 20.8502 302.649 20.9745 303.892 21.2775C305.663 15.9018 312.778 14.7133 316.329 19.149C319.521 23.1341 317.828 29.7759 312.794 31.2208C307.162 32.8366 302.493 28.0747 303.519 22.5048C302.447 22.031 301.561 22.0465 300.489 22.5126C301.647 28.7427 295.168 33.9164 289.513 30.4751C284.152 27.2124 285.186 18.3954 291.33 16.7097C295.09 15.6766 298.959 17.6808 300.108 21.4017H300.116ZM292.651 17.6575C285.458 18.4032 285.628 29.6283 292.496 30.3042C301.662 31.1975 301.413 16.7563 292.651 17.6575ZM309.842 17.6497C302.882 18.4887 302.905 29.6594 309.935 30.2964C319.086 31.1276 318.744 16.5777 309.842 17.6497Z" fill="#F8F8F8"/>
</g>
<defs>
<clipPath id="clip0_221_623">
<rect width="252" height="42" fill="white" transform="translate(0 3)"/>
</clipPath>
<clipPath id="clip1_221_623">
<rect width="48" height="48" fill="white" transform="translate(278)"/>
</clipPath>
</defs>
</svg>
