<svg width="48" height="48" viewBox="0 0 48 48" fill="none" xmlns="http://www.w3.org/2000/svg">
<g clip-path="url(#clip0_96_2180)">
<path d="M48 5.7221V42.1868C47.8724 42.533 47.8542 42.9157 47.7449 43.2802C47.1253 45.4305 45.4487 47.1253 43.2984 47.7267C42.9157 47.836 42.5513 47.8542 42.205 47.9818H5.63098C2.60592 47.4351 0.328018 45.139 0 42.0592V6.05011C0.291572 2.76993 2.84282 0.218679 6.14123 0H41.9681C44.9567 0.182232 47.6902 2.73349 48.0182 5.7221H48ZM14.5421 33.713V38.779C14.5421 38.779 14.6515 39.0159 14.6879 39.0159L19.6993 36.246C29.795 39.1071 41.1116 31.0524 38.7062 20.0456C36.9203 11.8269 27.8998 7.48975 20.0456 9.47608C8.5467 12.3736 4.95672 26.3144 14.5604 33.713H14.5421Z" fill="#4168B2"/>
<path d="M33.5673 19.1341L25.5308 27.6626L21.704 23.6352L14.5422 27.4803L22.4511 19.043L26.3144 23.0521L33.5673 19.1341Z" fill="#4168B2"/>
</g>
<defs>
<clipPath id="clip0_96_2180">
<rect width="48" height="48" fill="white"/>
</clipPath>
</defs>
</svg>
