<svg width="32" height="36" viewBox="0 0 32 36" fill="none" xmlns="http://www.w3.org/2000/svg">
<path d="M16.7275 0.0196616C17.1644 0.0691174 18.0052 0.324639 18.4503 0.481249C21.7308 1.6517 23.8327 5.35265 23.8492 8.73213C26.2148 8.91347 28.9596 8.48485 31.2758 8.73213C32.4627 8.85577 31.861 10.6939 31.8281 11.5264C31.6632 15.7713 31.4242 19.9916 31.2016 24.22C31.0532 27.0637 31.1851 30.4103 30.8225 33.1798C30.6411 34.5975 29.2811 36.0482 27.7809 35.9988H3.67945C1.46218 35.5537 1.13248 33.765 0.992354 31.828C0.489553 24.9701 0.267002 17.5682 0.126877 10.6609C0.118635 10.051 -0.268769 9.39154 0.299973 8.85577L8.11399 8.74037C8.27884 5.83072 9.65536 2.73149 12.1941 1.17363C13.0678 0.637859 14.3372 0.126816 15.351 0.0279042C15.7137 -0.00506631 16.3649 -0.0133089 16.7275 0.0279042V0.0196616ZM21.7143 8.73213C21.7226 5.37738 19.291 1.90723 15.656 2.12978C12.4002 2.3276 10.2736 5.70708 10.2323 8.73213H21.7143ZM20.4532 16.1917C20.5769 15.6642 21.3929 15.2356 20.9066 14.708C19.8268 13.5458 16.4226 13.0842 14.9142 13.2161C12.8617 13.4057 10.661 15.1119 10.4796 17.255C9.9521 23.3051 19.53 22.0275 20.0823 25.984C20.4532 28.6463 17.9475 29.7509 15.656 29.6519C13.7932 29.5695 12.293 28.6299 10.7846 27.6572C10.5456 27.6572 9.79549 28.7947 9.91089 29.0255C12.7793 31.9104 20.1318 32.6605 21.6484 28.0281C22.5963 25.1185 21.0797 23.2721 18.5986 21.9945C16.5792 20.956 10.9989 20.0905 12.4908 16.6615C13.6943 13.892 18.1947 14.708 20.1812 16.1917H20.4532Z" fill="#F8F8F8"/>
<path d="M20.4533 16.1914H20.1813C18.1948 14.6995 13.6943 13.8835 12.4909 16.653C10.999 20.082 16.5792 20.9475 18.5987 21.986C21.0797 23.2636 22.5964 25.11 21.6485 28.0196C20.1318 32.652 12.7876 31.9019 9.91094 29.017C9.79554 28.7862 10.5456 27.657 10.7847 27.6487C12.2848 28.6213 13.7932 29.5693 15.6561 29.6434C17.9475 29.7423 20.4533 28.6461 20.0824 25.9755C19.5301 22.019 9.95215 23.2966 10.4797 17.2465C10.6693 15.1034 12.8618 13.3972 14.9142 13.2076C16.4226 13.0675 19.8268 13.5373 20.9066 14.6995C21.3929 15.2271 20.5769 15.6474 20.4533 16.1832V16.1914Z" fill="#633739"/>
</svg>
