<svg width="48" height="48" viewBox="0 0 48 48" fill="none" xmlns="http://www.w3.org/2000/svg">
<g clip-path="url(#clip0_96_2170)">
<path d="M15.8559 47.7774C10.8345 47.7051 6.35306 48.2838 2.77151 44.0341C0.485793 41.3215 0.575782 39.1514 0.413802 35.8421C0.0178514 28.265 -0.180124 19.1327 0.215827 11.5736C0.521788 5.78682 3.83337 0 10.3126 0H14.0381L12.2203 1.37437C5.00323 7.68562 3.83337 20.4347 7.00098 29.0426C7.6489 30.7967 8.65677 32.0807 9.34069 33.6178C10.0966 35.2815 9.41268 36.7282 8.54879 38.1749C8.31481 38.5728 7.52291 38.9706 8.02685 39.3865L15.8379 47.7774H15.8559Z" fill="#4069B2"/>
<path d="M8.0451 39.3863C8.90899 39.6395 9.73689 39.4767 10.6188 39.332C11.2847 39.2235 13.9124 38.3013 14.0923 38.3374C14.3983 38.3917 15.5862 39.2778 16.0181 39.4767C24.909 43.6902 38.4793 43.4732 46.2723 36.9992C46.5063 36.8003 47.8021 35.3174 48.0001 35.5525C47.9101 38.681 47.4422 41.6829 45.3724 44.1243C43.3027 46.5656 40.459 47.5783 37.3814 47.7772C30.6863 48.2293 22.6413 47.8676 15.8381 47.7772L8.0271 39.3863H8.0451Z" fill="#3861AD"/>
<path d="M20.7515 15.8595C20.7875 16.3659 20.7155 16.8541 20.4635 17.3062C19.2757 19.4944 16.2521 22.4239 14.6863 24.6302C14.4883 24.9014 14.2003 25.1727 14.2183 25.5163H20.7515C20.8055 26.0045 20.7875 27.3427 20.1216 27.3427H11.3027C11.3027 26.963 11.2487 26.5651 11.3387 26.2035C11.5547 25.2993 16.1801 20.073 17.116 18.8614C17.3679 18.5178 17.7819 18.1019 17.8539 17.686H11.5007C11.5547 17.2701 11.3027 15.7691 11.7706 15.7148C11.8606 15.7148 11.9146 15.8595 11.9506 15.8595H20.7695H20.7515Z" fill="#3861AD"/>
<path d="M30.2002 27.3611C29.7502 27.3611 29.2103 27.4334 28.7964 27.2345C28.5084 27.1079 28.4904 26.6739 28.2924 26.6377C28.1664 26.6016 26.6546 27.343 25.9347 27.3611C23.811 27.4334 21.7412 25.824 21.3813 23.7082C20.6794 19.6212 24.9268 16.9629 28.3824 19.133C28.1484 18.1564 29.5343 18.717 30.2002 18.5904V27.343V27.3611ZM25.0708 20.2903C22.0832 20.8509 22.6411 26.0771 26.2587 25.4985C29.4803 24.9921 28.9943 19.567 25.0708 20.2903Z" fill="#3861AD"/>
<path d="M39.2531 18.2827C45.0303 17.7763 45.8223 26.6012 40.4589 27.3427C34.0517 28.2288 33.1878 18.8252 39.2531 18.2827ZM39.433 20.1092C35.9595 20.4166 36.2654 25.8779 39.937 25.5524C43.2846 25.245 42.8346 19.8198 39.433 20.1092Z" fill="#3861AD"/>
<path d="M33.8359 15.6787V27.0715C33.8359 27.5236 31.8381 27.4513 31.8381 26.8907V15.6787H33.8359Z" fill="#3861AD"/>
</g>
<defs>
<clipPath id="clip0_96_2170">
<rect width="48" height="48" fill="white"/>
</clipPath>
</defs>
</svg>
